<?xml version="1.0" standalone="no"?>
<!DOCTYPE svg PUBLIC "-//W3C//DTD SVG 20010904//EN"
 "http://www.w3.org/TR/2001/REC-SVG-20010904/DTD/svg10.dtd">
<svg version="1.0" xmlns="http://www.w3.org/2000/svg"
 width="603.000000pt" height="603.000000pt" viewBox="0 0 603.000000 603.000000"
 preserveAspectRatio="xMidYMid meet">
<metadata>
Created by potrace 1.11, written by Peter Selinger 2001-2013
</metadata>
<g transform="translate(0.000000,603.000000) scale(0.100000,-0.100000)"
fill="#000000" stroke="none">
<path d="M3263 5549 c-75 -13 -216 -89 -282 -153 -101 -97 -163 -201 -176
-293 l-7 -51 -46 25 c-104 56 -191 72 -310 57 l-56 -7 41 -21 c44 -22 123 -89
123 -103 0 -4 -21 -9 -47 -10 -66 -3 -138 -32 -174 -69 l-31 -32 36 -10 c83
-23 196 -131 246 -237 49 -103 58 -176 34 -276 l-19 -81 -25 22 c-103 90 -222
77 -296 -34 -11 -17 -29 -54 -39 -83 l-18 -52 -61 43 c-82 58 -164 104 -263
147 l-83 35 42 60 c38 52 43 65 41 108 -2 58 -16 89 -49 107 -21 11 -27 10
-47 -9 -35 -33 -91 -52 -152 -52 -54 0 -57 1 -70 34 -29 69 -114 89 -157 37
-32 -37 -45 -41 -92 -25 -58 21 -82 17 -121 -17 l-35 -31 -43 21 c-113 55
-177 -1 -177 -155 l0 -60 -67 -23 c-333 -115 -691 -461 -801 -776 -70 -202
-73 -220 -78 -465 l-3 -205 34 -134 c61 -234 141 -383 300 -556 50 -54 95
-102 100 -107 58 -49 77 -65 120 -98 98 -75 387 -213 473 -226 20 -3 48 -7 62
-10 110 -19 352 -25 471 -12 92 11 316 80 418 130 45 23 110 61 143 85 33 25
61 43 62 41 10 -12 30 -153 41 -278 3 -36 13 -99 21 -140 9 -41 18 -88 21
-105 12 -80 80 -284 131 -397 30 -66 30 -68 16 -120 -7 -29 -16 -69 -19 -88
-3 -20 -8 -47 -11 -60 -3 -14 -8 -63 -10 -110 -4 -102 14 -147 79 -197 66 -49
107 -62 189 -59 93 2 158 33 321 151 158 113 391 248 422 244 3 0 18 2 33 5
15 3 61 8 103 11 42 3 87 8 99 10 13 3 44 7 69 10 25 3 62 9 81 15 19 5 47 10
61 10 36 0 175 71 224 114 22 20 42 36 45 36 3 0 33 37 66 82 67 91 94 168 87
249 -8 99 -58 163 -200 255 -86 56 -115 88 -156 169 -26 53 -71 207 -65 224 1
6 42 -7 89 -29 114 -52 208 -68 394 -69 178 0 165 -7 221 117 36 80 39 84 96
112 l58 29 0 -347 c0 -379 7 -455 55 -571 26 -63 65 -124 95 -148 8 -7 42 -26
75 -42 67 -34 157 -48 277 -45 193 5 298 40 379 127 38 41 96 158 111 222 7
32 13 235 17 575 l6 524 96 56 c162 93 210 162 217 311 5 115 -7 191 -54 338
l-35 110 47 63 c43 58 46 66 41 111 -9 103 -95 138 -189 78 -53 -34 -89 -91
-109 -171 -13 -49 -15 -1 -20 465 -5 480 -7 525 -26 590 -23 82 -43 122 -90
188 -80 109 -201 149 -429 144 -160 -4 -231 -23 -302 -84 -52 -44 -119 -163
-132 -235 -6 -29 -13 -64 -17 -78 -4 -14 -9 -360 -11 -770 l-3 -745 -56 -22
c-56 -22 -57 -22 -70 -3 -14 20 -14 20 -53 0 -59 -30 -196 -37 -285 -15 -76
19 -129 52 -280 169 -131 102 -214 137 -273 115 -19 -7 -31 -5 -50 8 -60 43
-79 54 -114 63 -35 10 -38 14 -38 45 0 46 40 77 207 159 108 54 143 77 201
133 38 37 84 94 101 126 19 33 39 57 49 57 114 3 207 66 233 158 16 59 6 153
-21 198 -48 77 -92 104 -179 110 -29 2 -56 6 -59 9 -5 5 -4 128 2 185 3 37 37
133 52 151 8 8 14 21 14 28 0 7 25 24 55 37 43 20 67 25 108 22 29 -2 60 -8
70 -12 14 -7 17 -3 17 28 0 74 -61 146 -148 177 l-33 11 33 21 c66 40 114 114
134 205 7 37 14 78 14 92 -1 23 -2 23 -11 6 -28 -48 -76 -76 -158 -95 -37 -8
-55 -1 -32 13 20 13 80 114 91 155 16 59 16 135 1 199 l-13 53 -23 -48 c-58
-123 -235 -177 -395 -122 -35 12 -87 22 -115 23 l-50 1 3 34 c3 39 33 92 74
132 20 18 25 30 18 34 -23 14 -152 7 -215 -12 -11 -3 -62 -34 -112 -70 -51
-35 -93 -62 -93 -60 0 25 42 91 82 129 l50 48 -53 -1 c-30 -1 -77 -5 -106 -10z
m-555 -2039 c105 -107 103 -104 85 -190 -19 -86 -27 -100 -58 -100 -20 0 -23
7 -34 85 -13 94 -55 251 -74 275 -23 29 25 -12 81 -70z"/>
</g>
</svg>
